<mxfile host="app.diagrams.net" agent="Mozilla/5.0 (Windows NT 10.0; Win64; x64) AppleWebKit/537.36 (KHTML, like Gecko) Chrome/126.0.0.0 Whale/3.27.254.15 Safari/537.36" version="24.7.7">
  <diagram name="페이지-1" id="Eu8jX8nZXac7cEKZ1o4z">
    <mxGraphModel dx="1437" dy="848" grid="1" gridSize="10" guides="1" tooltips="1" connect="1" arrows="1" fold="1" page="1" pageScale="1" pageWidth="827" pageHeight="1169" math="0" shadow="0">
      <root>
        <mxCell id="0" />
        <mxCell id="1" parent="0" />
        <mxCell id="SgqDhj5_bFRxwwRKQSyi-39" value="" style="points=[[0,0],[0.25,0],[0.5,0],[0.75,0],[1,0],[1,0.25],[1,0.5],[1,0.75],[1,1],[0.75,1],[0.5,1],[0.25,1],[0,1],[0,0.75],[0,0.5],[0,0.25]];outlineConnect=0;gradientColor=none;html=1;whiteSpace=wrap;fontSize=12;fontStyle=0;container=1;pointerEvents=0;collapsible=0;recursiveResize=0;shape=mxgraph.aws4.group;grIcon=mxgraph.aws4.group_vpc2;strokeColor=#8C4FFF;fillColor=none;verticalAlign=top;align=left;spacingLeft=30;fontColor=#AAB7B8;dashed=0;" parent="1" vertex="1">
          <mxGeometry x="280" y="380" width="300" height="430" as="geometry" />
        </mxCell>
        <mxCell id="SgqDhj5_bFRxwwRKQSyi-40" value="Private subnet" style="points=[[0,0],[0.25,0],[0.5,0],[0.75,0],[1,0],[1,0.25],[1,0.5],[1,0.75],[1,1],[0.75,1],[0.5,1],[0.25,1],[0,1],[0,0.75],[0,0.5],[0,0.25]];outlineConnect=0;gradientColor=none;html=1;whiteSpace=wrap;fontSize=12;fontStyle=0;container=1;pointerEvents=0;collapsible=0;recursiveResize=0;shape=mxgraph.aws4.group;grIcon=mxgraph.aws4.group_security_group;grStroke=0;strokeColor=#00A4A6;fillColor=#E6F6F7;verticalAlign=top;align=left;spacingLeft=30;fontColor=#147EBA;dashed=0;" parent="SgqDhj5_bFRxwwRKQSyi-39" vertex="1">
          <mxGeometry x="40" y="50" width="220" height="160" as="geometry" />
        </mxCell>
        <mxCell id="SgqDhj5_bFRxwwRKQSyi-41" value="ssm&lt;br&gt;ssm message&lt;br&gt;ec2 message" style="sketch=0;outlineConnect=0;fontColor=#232F3E;gradientColor=none;fillColor=#8C4FFF;strokeColor=none;dashed=0;verticalLabelPosition=bottom;verticalAlign=top;align=center;html=1;fontSize=12;fontStyle=0;aspect=fixed;pointerEvents=1;shape=mxgraph.aws4.endpoint;" parent="SgqDhj5_bFRxwwRKQSyi-40" vertex="1">
          <mxGeometry x="140" y="70" width="40" height="40" as="geometry" />
        </mxCell>
        <mxCell id="SgqDhj5_bFRxwwRKQSyi-42" value="" style="sketch=0;outlineConnect=0;fontColor=#232F3E;gradientColor=none;fillColor=#ED7100;strokeColor=none;dashed=0;verticalLabelPosition=bottom;verticalAlign=top;align=center;html=1;fontSize=12;fontStyle=0;aspect=fixed;pointerEvents=1;shape=mxgraph.aws4.instance2;" parent="SgqDhj5_bFRxwwRKQSyi-40" vertex="1">
          <mxGeometry x="40" y="66" width="48" height="48" as="geometry" />
        </mxCell>
        <mxCell id="SgqDhj5_bFRxwwRKQSyi-43" value="10.1.1.0/24" style="text;html=1;align=center;verticalAlign=middle;resizable=0;points=[];autosize=1;strokeColor=none;fillColor=none;" parent="SgqDhj5_bFRxwwRKQSyi-40" vertex="1">
          <mxGeometry x="110" width="80" height="30" as="geometry" />
        </mxCell>
        <mxCell id="SgqDhj5_bFRxwwRKQSyi-44" value="VPC A&amp;nbsp;" style="text;html=1;align=center;verticalAlign=middle;resizable=0;points=[];autosize=1;strokeColor=none;fillColor=none;" parent="SgqDhj5_bFRxwwRKQSyi-39" vertex="1">
          <mxGeometry x="30" width="60" height="30" as="geometry" />
        </mxCell>
        <mxCell id="SgqDhj5_bFRxwwRKQSyi-45" value="10.1.0.0/16" style="text;html=1;align=center;verticalAlign=middle;resizable=0;points=[];autosize=1;strokeColor=none;fillColor=none;" parent="SgqDhj5_bFRxwwRKQSyi-39" vertex="1">
          <mxGeometry x="80" width="80" height="30" as="geometry" />
        </mxCell>
        <mxCell id="SgqDhj5_bFRxwwRKQSyi-46" value="Private subnet" style="points=[[0,0],[0.25,0],[0.5,0],[0.75,0],[1,0],[1,0.25],[1,0.5],[1,0.75],[1,1],[0.75,1],[0.5,1],[0.25,1],[0,1],[0,0.75],[0,0.5],[0,0.25]];outlineConnect=0;gradientColor=none;html=1;whiteSpace=wrap;fontSize=12;fontStyle=0;container=1;pointerEvents=0;collapsible=0;recursiveResize=0;shape=mxgraph.aws4.group;grIcon=mxgraph.aws4.group_security_group;grStroke=0;strokeColor=#00A4A6;fillColor=#E6F6F7;verticalAlign=top;align=left;spacingLeft=30;fontColor=#147EBA;dashed=0;" parent="SgqDhj5_bFRxwwRKQSyi-39" vertex="1">
          <mxGeometry x="40" y="240" width="220" height="160" as="geometry" />
        </mxCell>
        <mxCell id="SgqDhj5_bFRxwwRKQSyi-47" value="10.1.2.0/24" style="text;html=1;align=center;verticalAlign=middle;resizable=0;points=[];autosize=1;strokeColor=none;fillColor=none;" parent="SgqDhj5_bFRxwwRKQSyi-46" vertex="1">
          <mxGeometry x="110" width="80" height="30" as="geometry" />
        </mxCell>
        <mxCell id="SgqDhj5_bFRxwwRKQSyi-48" value="TGW ENI" style="sketch=0;outlineConnect=0;fontColor=#232F3E;gradientColor=none;fillColor=#8C4FFF;strokeColor=none;dashed=0;verticalLabelPosition=bottom;verticalAlign=top;align=center;html=1;fontSize=12;fontStyle=0;aspect=fixed;pointerEvents=1;shape=mxgraph.aws4.transit_gateway_attachment;" parent="SgqDhj5_bFRxwwRKQSyi-46" vertex="1">
          <mxGeometry x="87.5" y="57.5" width="45" height="45" as="geometry" />
        </mxCell>
        <mxCell id="SgqDhj5_bFRxwwRKQSyi-49" value="" style="points=[[0,0],[0.25,0],[0.5,0],[0.75,0],[1,0],[1,0.25],[1,0.5],[1,0.75],[1,1],[0.75,1],[0.5,1],[0.25,1],[0,1],[0,0.75],[0,0.5],[0,0.25]];outlineConnect=0;gradientColor=none;html=1;whiteSpace=wrap;fontSize=12;fontStyle=0;container=1;pointerEvents=0;collapsible=0;recursiveResize=0;shape=mxgraph.aws4.group;grIcon=mxgraph.aws4.group_vpc2;strokeColor=#8C4FFF;fillColor=none;verticalAlign=top;align=left;spacingLeft=30;fontColor=#AAB7B8;dashed=0;" parent="1" vertex="1">
          <mxGeometry x="600" y="380" width="300" height="430" as="geometry" />
        </mxCell>
        <mxCell id="SgqDhj5_bFRxwwRKQSyi-50" value="Private subnet" style="points=[[0,0],[0.25,0],[0.5,0],[0.75,0],[1,0],[1,0.25],[1,0.5],[1,0.75],[1,1],[0.75,1],[0.5,1],[0.25,1],[0,1],[0,0.75],[0,0.5],[0,0.25]];outlineConnect=0;gradientColor=none;html=1;whiteSpace=wrap;fontSize=12;fontStyle=0;container=1;pointerEvents=0;collapsible=0;recursiveResize=0;shape=mxgraph.aws4.group;grIcon=mxgraph.aws4.group_security_group;grStroke=0;strokeColor=#00A4A6;fillColor=#E6F6F7;verticalAlign=top;align=left;spacingLeft=30;fontColor=#147EBA;dashed=0;" parent="SgqDhj5_bFRxwwRKQSyi-49" vertex="1">
          <mxGeometry x="40" y="50" width="220" height="160" as="geometry" />
        </mxCell>
        <mxCell id="SgqDhj5_bFRxwwRKQSyi-51" value="ssm&lt;br&gt;ssm message&lt;br&gt;ec2 message" style="sketch=0;outlineConnect=0;fontColor=#232F3E;gradientColor=none;fillColor=#8C4FFF;strokeColor=none;dashed=0;verticalLabelPosition=bottom;verticalAlign=top;align=center;html=1;fontSize=12;fontStyle=0;aspect=fixed;pointerEvents=1;shape=mxgraph.aws4.endpoint;" parent="SgqDhj5_bFRxwwRKQSyi-50" vertex="1">
          <mxGeometry x="140" y="70" width="40" height="40" as="geometry" />
        </mxCell>
        <mxCell id="SgqDhj5_bFRxwwRKQSyi-52" value="" style="sketch=0;outlineConnect=0;fontColor=#232F3E;gradientColor=none;fillColor=#ED7100;strokeColor=none;dashed=0;verticalLabelPosition=bottom;verticalAlign=top;align=center;html=1;fontSize=12;fontStyle=0;aspect=fixed;pointerEvents=1;shape=mxgraph.aws4.instance2;" parent="SgqDhj5_bFRxwwRKQSyi-50" vertex="1">
          <mxGeometry x="40" y="66" width="48" height="48" as="geometry" />
        </mxCell>
        <mxCell id="SgqDhj5_bFRxwwRKQSyi-53" value="10.2.1.0/24" style="text;html=1;align=center;verticalAlign=middle;resizable=0;points=[];autosize=1;strokeColor=none;fillColor=none;" parent="SgqDhj5_bFRxwwRKQSyi-50" vertex="1">
          <mxGeometry x="110" width="80" height="30" as="geometry" />
        </mxCell>
        <mxCell id="SgqDhj5_bFRxwwRKQSyi-54" value="VPC A&amp;nbsp;" style="text;html=1;align=center;verticalAlign=middle;resizable=0;points=[];autosize=1;strokeColor=none;fillColor=none;" parent="SgqDhj5_bFRxwwRKQSyi-49" vertex="1">
          <mxGeometry x="30" width="60" height="30" as="geometry" />
        </mxCell>
        <mxCell id="SgqDhj5_bFRxwwRKQSyi-55" value="10.2.0.0/16" style="text;html=1;align=center;verticalAlign=middle;resizable=0;points=[];autosize=1;strokeColor=none;fillColor=none;" parent="SgqDhj5_bFRxwwRKQSyi-49" vertex="1">
          <mxGeometry x="80" width="80" height="30" as="geometry" />
        </mxCell>
        <mxCell id="SgqDhj5_bFRxwwRKQSyi-56" value="Private subnet" style="points=[[0,0],[0.25,0],[0.5,0],[0.75,0],[1,0],[1,0.25],[1,0.5],[1,0.75],[1,1],[0.75,1],[0.5,1],[0.25,1],[0,1],[0,0.75],[0,0.5],[0,0.25]];outlineConnect=0;gradientColor=none;html=1;whiteSpace=wrap;fontSize=12;fontStyle=0;container=1;pointerEvents=0;collapsible=0;recursiveResize=0;shape=mxgraph.aws4.group;grIcon=mxgraph.aws4.group_security_group;grStroke=0;strokeColor=#00A4A6;fillColor=#E6F6F7;verticalAlign=top;align=left;spacingLeft=30;fontColor=#147EBA;dashed=0;" parent="SgqDhj5_bFRxwwRKQSyi-49" vertex="1">
          <mxGeometry x="40" y="240" width="220" height="160" as="geometry" />
        </mxCell>
        <mxCell id="SgqDhj5_bFRxwwRKQSyi-57" value="10.2.2.0/24" style="text;html=1;align=center;verticalAlign=middle;resizable=0;points=[];autosize=1;strokeColor=none;fillColor=none;" parent="SgqDhj5_bFRxwwRKQSyi-56" vertex="1">
          <mxGeometry x="110" width="80" height="30" as="geometry" />
        </mxCell>
        <mxCell id="SgqDhj5_bFRxwwRKQSyi-58" value="TGW ENI" style="sketch=0;outlineConnect=0;fontColor=#232F3E;gradientColor=none;fillColor=#8C4FFF;strokeColor=none;dashed=0;verticalLabelPosition=bottom;verticalAlign=top;align=center;html=1;fontSize=12;fontStyle=0;aspect=fixed;pointerEvents=1;shape=mxgraph.aws4.transit_gateway_attachment;" parent="SgqDhj5_bFRxwwRKQSyi-56" vertex="1">
          <mxGeometry x="87.5" y="57.5" width="45" height="45" as="geometry" />
        </mxCell>
        <mxCell id="SgqDhj5_bFRxwwRKQSyi-59" value="" style="sketch=0;points=[[0,0,0],[0.25,0,0],[0.5,0,0],[0.75,0,0],[1,0,0],[0,1,0],[0.25,1,0],[0.5,1,0],[0.75,1,0],[1,1,0],[0,0.25,0],[0,0.5,0],[0,0.75,0],[1,0.25,0],[1,0.5,0],[1,0.75,0]];outlineConnect=0;fontColor=#232F3E;fillColor=#8C4FFF;strokeColor=#ffffff;dashed=0;verticalLabelPosition=bottom;verticalAlign=top;align=center;html=1;fontSize=12;fontStyle=0;aspect=fixed;shape=mxgraph.aws4.resourceIcon;resIcon=mxgraph.aws4.transit_gateway;" parent="1" vertex="1">
          <mxGeometry x="816" y="920" width="78" height="78" as="geometry" />
        </mxCell>
        <mxCell id="SgqDhj5_bFRxwwRKQSyi-60" value="" style="points=[[0,0],[0.25,0],[0.5,0],[0.75,0],[1,0],[1,0.25],[1,0.5],[1,0.75],[1,1],[0.75,1],[0.5,1],[0.25,1],[0,1],[0,0.75],[0,0.5],[0,0.25]];outlineConnect=0;gradientColor=none;html=1;whiteSpace=wrap;fontSize=12;fontStyle=0;container=1;pointerEvents=0;collapsible=0;recursiveResize=0;shape=mxgraph.aws4.group;grIcon=mxgraph.aws4.group_vpc2;strokeColor=#8C4FFF;fillColor=none;verticalAlign=top;align=left;spacingLeft=30;fontColor=#AAB7B8;dashed=0;" parent="1" vertex="1">
          <mxGeometry x="1510" y="280" width="270" height="590" as="geometry" />
        </mxCell>
        <mxCell id="SgqDhj5_bFRxwwRKQSyi-61" value="Public subnet" style="points=[[0,0],[0.25,0],[0.5,0],[0.75,0],[1,0],[1,0.25],[1,0.5],[1,0.75],[1,1],[0.75,1],[0.5,1],[0.25,1],[0,1],[0,0.75],[0,0.5],[0,0.25]];outlineConnect=0;gradientColor=none;html=1;whiteSpace=wrap;fontSize=12;fontStyle=0;container=1;pointerEvents=0;collapsible=0;recursiveResize=0;shape=mxgraph.aws4.group;grIcon=mxgraph.aws4.group_security_group;grStroke=0;strokeColor=#7AA116;fillColor=#F2F6E8;verticalAlign=top;align=left;spacingLeft=30;fontColor=#248814;dashed=0;" parent="SgqDhj5_bFRxwwRKQSyi-60" vertex="1">
          <mxGeometry x="30" y="50" width="220" height="160" as="geometry" />
        </mxCell>
        <mxCell id="SgqDhj5_bFRxwwRKQSyi-62" value="" style="sketch=0;outlineConnect=0;fontColor=#232F3E;gradientColor=none;fillColor=#8C4FFF;strokeColor=none;dashed=0;verticalLabelPosition=bottom;verticalAlign=top;align=center;html=1;fontSize=12;fontStyle=0;aspect=fixed;pointerEvents=1;shape=mxgraph.aws4.nat_gateway;" parent="SgqDhj5_bFRxwwRKQSyi-61" vertex="1">
          <mxGeometry x="80" y="57.5" width="49" height="49" as="geometry" />
        </mxCell>
        <mxCell id="SgqDhj5_bFRxwwRKQSyi-70" value="10.3.1.0/24" style="text;html=1;align=center;verticalAlign=middle;resizable=0;points=[];autosize=1;strokeColor=none;fillColor=none;" parent="SgqDhj5_bFRxwwRKQSyi-61" vertex="1">
          <mxGeometry x="20" y="20" width="80" height="30" as="geometry" />
        </mxCell>
        <mxCell id="SgqDhj5_bFRxwwRKQSyi-63" value="EGRESS VPC" style="text;html=1;align=center;verticalAlign=middle;resizable=0;points=[];autosize=1;strokeColor=none;fillColor=none;" parent="SgqDhj5_bFRxwwRKQSyi-60" vertex="1">
          <mxGeometry x="30" width="100" height="30" as="geometry" />
        </mxCell>
        <mxCell id="SgqDhj5_bFRxwwRKQSyi-64" value="Private subnet" style="points=[[0,0],[0.25,0],[0.5,0],[0.75,0],[1,0],[1,0.25],[1,0.5],[1,0.75],[1,1],[0.75,1],[0.5,1],[0.25,1],[0,1],[0,0.75],[0,0.5],[0,0.25]];outlineConnect=0;gradientColor=none;html=1;whiteSpace=wrap;fontSize=12;fontStyle=0;container=1;pointerEvents=0;collapsible=0;recursiveResize=0;shape=mxgraph.aws4.group;grIcon=mxgraph.aws4.group_security_group;grStroke=0;strokeColor=#00A4A6;fillColor=#E6F6F7;verticalAlign=top;align=left;spacingLeft=30;fontColor=#147EBA;dashed=0;" parent="SgqDhj5_bFRxwwRKQSyi-60" vertex="1">
          <mxGeometry x="30" y="410" width="220" height="160" as="geometry" />
        </mxCell>
        <mxCell id="SgqDhj5_bFRxwwRKQSyi-66" value="TGW ENI" style="sketch=0;outlineConnect=0;fontColor=#232F3E;gradientColor=none;fillColor=#8C4FFF;strokeColor=none;dashed=0;verticalLabelPosition=bottom;verticalAlign=top;align=center;html=1;fontSize=12;fontStyle=0;aspect=fixed;pointerEvents=1;shape=mxgraph.aws4.transit_gateway_attachment;" parent="SgqDhj5_bFRxwwRKQSyi-64" vertex="1">
          <mxGeometry x="87.5" y="57.5" width="45" height="45" as="geometry" />
        </mxCell>
        <mxCell id="SgqDhj5_bFRxwwRKQSyi-67" value="10.3.0.0/16" style="text;html=1;align=center;verticalAlign=middle;resizable=0;points=[];autosize=1;strokeColor=none;fillColor=none;" parent="SgqDhj5_bFRxwwRKQSyi-60" vertex="1">
          <mxGeometry x="30" y="20" width="80" height="30" as="geometry" />
        </mxCell>
        <mxCell id="SgqDhj5_bFRxwwRKQSyi-68" value="Private subnet" style="points=[[0,0],[0.25,0],[0.5,0],[0.75,0],[1,0],[1,0.25],[1,0.5],[1,0.75],[1,1],[0.75,1],[0.5,1],[0.25,1],[0,1],[0,0.75],[0,0.5],[0,0.25]];outlineConnect=0;gradientColor=none;html=1;whiteSpace=wrap;fontSize=12;fontStyle=0;container=1;pointerEvents=0;collapsible=0;recursiveResize=0;shape=mxgraph.aws4.group;grIcon=mxgraph.aws4.group_security_group;grStroke=0;strokeColor=#00A4A6;fillColor=#E6F6F7;verticalAlign=top;align=left;spacingLeft=30;fontColor=#147EBA;dashed=0;" parent="SgqDhj5_bFRxwwRKQSyi-60" vertex="1">
          <mxGeometry x="30" y="230" width="220" height="160" as="geometry" />
        </mxCell>
        <mxCell id="SgqDhj5_bFRxwwRKQSyi-69" value="10.3.2.0/24" style="text;html=1;align=center;verticalAlign=middle;resizable=0;points=[];autosize=1;strokeColor=none;fillColor=none;" parent="SgqDhj5_bFRxwwRKQSyi-68" vertex="1">
          <mxGeometry x="30" y="20" width="80" height="30" as="geometry" />
        </mxCell>
        <mxCell id="SgqDhj5_bFRxwwRKQSyi-104" value="" style="sketch=0;outlineConnect=0;fontColor=#232F3E;gradientColor=none;fillColor=#DD344C;strokeColor=none;dashed=0;verticalLabelPosition=bottom;verticalAlign=top;align=center;html=1;fontSize=12;fontStyle=0;aspect=fixed;pointerEvents=1;shape=mxgraph.aws4.network_firewall_endpoints;" parent="SgqDhj5_bFRxwwRKQSyi-68" vertex="1">
          <mxGeometry x="85" y="60" width="48" height="48" as="geometry" />
        </mxCell>
        <mxCell id="SgqDhj5_bFRxwwRKQSyi-71" value="" style="sketch=0;outlineConnect=0;fontColor=#232F3E;gradientColor=none;fillColor=#8C4FFF;strokeColor=none;dashed=0;verticalLabelPosition=bottom;verticalAlign=top;align=center;html=1;fontSize=12;fontStyle=0;aspect=fixed;pointerEvents=1;shape=mxgraph.aws4.internet_gateway;" parent="SgqDhj5_bFRxwwRKQSyi-60" vertex="1">
          <mxGeometry x="115" y="-20" width="40" height="40" as="geometry" />
        </mxCell>
        <mxCell id="SgqDhj5_bFRxwwRKQSyi-65" value="10.3.3.0/24" style="text;html=1;align=center;verticalAlign=middle;resizable=0;points=[];autosize=1;strokeColor=none;fillColor=none;" parent="SgqDhj5_bFRxwwRKQSyi-60" vertex="1">
          <mxGeometry x="50" y="430" width="80" height="30" as="geometry" />
        </mxCell>
        <mxCell id="SgqDhj5_bFRxwwRKQSyi-75" value="" style="shape=image;verticalLabelPosition=bottom;labelBackgroundColor=default;verticalAlign=top;aspect=fixed;imageAspect=0;image=data:image/png,iVBORw0KGgoAAAANSUhEUgAAANwAAABICAYAAACdrZvUAAAAAXNSR0IArs4c6QAAAARnQU1BAACxjwv8YQUAAAAJcEhZcwAADsMAAA7DAcdvqGQAAAmvSURBVHhe7Z1Ba9tIFMdf9ouYpU4CrS+5KhD2sASSXnJycsthiQ29JJdSCCWHUAKlF+dSSMIefEty8qURhD0sgeaaixuInaX4k2jfG81IM7IkexxZttT3g8GWNJKrefrPvHkTvS4AgIeFYZgc+E1+MgyTA8EId3Z2Rh8Mw0yBZrMpPgPBPT090QdTAJaXl9leBYFs5XkeLCyQ1NilZJhcYcExTI6w4BgmRywEdwdH6I8uLx/hN4ZhJoFHOIbJkdkJ7u5IRHCWj3i8zIR5bE+28RA8wjFMjqQIbgDtHZqz+WWn/VPuNxm0d4I6VMzOTM37VNmB9kCes3flV7naE8d26AAzEWnteXektz8VfQ6ubEx2kbbaaeNe/Zhfju6ULX0bKpLszzaOJ0Fw1NjrcPIgN5GHkxOQzRdAxlzXKyFXe6rRyUB7eM42XDw9iYXa28MlUYeZJVewF4gqxP1AtlIM2/9qTz/uk25/Jo54wQ3+BVe04woc3vpiebrYFocCBm34ShZYOYRbKShV5+ofbPHBT+iJrZDK7jHsVujzMrze9oU495IOMBOR1p5rx9I2otzC4QrufHDhX0NxD/Cw5J/3dLkLlQzszzaOJ0Fw/6EJkO13QiCCtT9xrNJQdR5OYF25FMqF6P2EQeV38Mez+B6VyQfT5TNHrRAU1l9r8juShf39b0yEWMENfkbHphRk72UU6iVhDY5vD9GUSGAUXsPLlbsj3+ULbCRHuBFkY38mjljBVX6Xc62rr8EEedD+avrwlVe+mHBCrPvsd0eaqCq7cCmMcCF7Rxztog4+94bZorXnkHDu/k4Y4Uwys7+CbRwQ71IG7sMDnKz77sK6S46HRuUP2JA7aKKs3BblVZCPvxNYYg3+kl3ryivZ9ymDydGPI1gvJKY9Q+H4UcLlvR6sGEZMIAv7E2zjIeIFR+5gMCoR23Bx+U7OyRQV2L2Muig0yT7GsyXK0GQw7FpXDm/DiTOOfu+MSQHzIuLac+0YwlgH2eYzbMitdKL2x3M/T2B/tvEQ/D5cAaEOLHd7kceyfoJjHi3zaKJiUiFb8ftwzAhoHU5f4MbtDyQ2ZOUVB0ReAAuOSSCcv4XLCeRacgTyJbDgmBhofqbP4QhyJS/DdTlmIngOV0BmModjJiI6hwsExzDMdOh2u1Cr1cT3QHCkQqYYUG/J9ioGylYcpWSYGcCCY5gcYcExTI6w4EqA21yA1dNnuTV98v69MjFCcC40F1Yhrm2fT1fFRFCU1VNIbH63Gdaj0nTlgXjGvi4ydt3nU1hdaOLd6CTfG54Ap6vyulhG/JMZZmwSBKceuE04l3t06EFfvK5D3/NEBOamdgCLsU8lXucTwI2s53l9aHU3E3vH8a9rV9f9cgDQei//cDf93vzji3Bd78t/swdbvXThM4wNFF/G5yqk33I8aKBMvBuvAY7Xwqc6hPaBJw4r+i3PgQYeGYObhgdOyzMuKbC5rm3d8B7S700/Pr9E7XXTAM+J3sgUyfv3ioyyldJZ7AhX3f8O3lnCixzPPehCA7b0w9W3UHfOofMS18vmujZ13Q6cNz7CftXfTL03HMe+Xd9Dw7hwMTHcbSpxo7/h7usut+lSm8eYl2AfNOk/wr3zGhblpi1uBx252hLI5z/E5rpj1yWX9txCQH14vHfgNdCcTz1sSfO8+UW42we1IVdeF50Q5Kbu7m9BT97o8+kXgLbaj+564xw2E9x1xo5Mo5TdXvqTSUbePG/ATeIIE8+o6+oYdZ+/wTW04P24PydGToDrDj1v/sPWbwEcLBaph3dBTFn7Z9rLplXYb7fAOf8kO4+4OhuwL92A6v5Z4BEQG1vowHd7PI/NgEwFV1saGrcCKJTs97q6kccj7bpR9LoiWFJ/OzyajqD+fj84p7rfhtZL3eU8EZ1GDYaaTLjc9/DYx+9JdTQMl3QzPrzE2GMvuMXX4Nw/ovM1Lv58YBNucMRIEZvNdceq60Ln3EG92cotHptRdu4hl1x+HYaWS7BzfPwYuJQUJWGywV5w1SXsG7tgPH/kut1HghgSt7kIBzUU2yg30ua649SNBEvGQh8FItiMsjMlrm0I0T44P6WJL3VYcXUIajcw3f7nHjnaTFYMhZlDUkLnWmjfCBOL8Lw8R/8eR+T42NcVmyl1cW/LiSwbDJFyb9ryQvR35oGovaJh+ug9qPbQlzvoHLPOjdeia0RtJraxbmJbM2koWymdTTSHo9C6WGiWPj65i98Th5J7OFhUET9V4iN/NtdNrWsbLNGg6/ZbXdiU1xWL69/DOV0RiN7DwoJcyNdGrY0zCgjpdTqwRO1X3Ye2CBTJ/bsAbVQYkw2lfB+OAjSfXvdTOoFiQ0Iok73KjLIVfYptLCUTHE36O7A1QTS0KLDgisMvILjyw4IrDlHBZboOxzBMOiw4hsmRwKVkGGY6cNaugsNzuOLAcziGmSEsOIbJERYcw+QIC45hciRRcMb7UFllz0KmUjeSlcvmNxgmbyjc5enE/SV+UmKdeahLx9Rfr9ucV1Si9sKbNO6ZmR+UrZTOsPhfQmwzYs1DXfU6ic15xcW0F8KCm1uUrZTOsEQEF/uAJrxfNg916WFTO23OKzC6vcQIHhrTGM3FaK/2kyA1Yepegc9wZyXOL1PDzQBqe/VJZXgON5XsWUgeWblsfqMk0HttpB4Ukp8UV77zRvNYI3NXG2BXy01CiYHur7+F81u3A13HMVJJ9B/LkTJwnrCKUk6cPWsEE9e1eNHU5jeKT0xWLvFiqSM3kEheGLfThfrHOkAgQj8njEjJwGSGleAmzZ41ijyychUmJ0kWJGTlqi75f88nMBLnPkOvi/U3cB9IEVJuE6cOGeVgYiTDgss8e5Yk87oxWblsfuOXpwpv69KFJE+htoWjYRWWar4IKXGQM0GKQSadYcFlnT1LkUdWLpvfKD2RdkBE1muN6lvfhXS/XUNNNhDN7bo9F3BXZikGGZMgkqKIW8sKIloiEjiFTFs2dXFvUuQx/bxyELUX3iTuM6OzdN96O/h1IvtEZLLhNRqRLF2Og0Wvx0yKspXSGZZhwRHCYKqSGSs2hEHMpG7KA5F4Xkmg+zLxOyDzfrV9an/Mep1oK2OfPK+E7TYLlK2UHQr5PlzZs3KNgv5kbRJ7iaUCyqhs+X87MJOjbEWfhFWUcj6gYEkDPv6iYnsJtK7mcJx/pvAb3wVknBHObTYBzsJ1uHAhvLzpA+eR6AjHgisg4wiOPIGm8d8qN1hsM4AFVwLGExwzDyQKjmGY6cBZuwrOjx8/4M2bN3KLmWeUrXiEY5gZUMBlAYYpKgD/A+iQcMmQ2vwdAAAAAElFTkSuQmCC;" parent="1" vertex="1">
          <mxGeometry x="680" y="300" width="220" height="72" as="geometry" />
        </mxCell>
        <mxCell id="SgqDhj5_bFRxwwRKQSyi-76" value="" style="shape=image;verticalLabelPosition=bottom;labelBackgroundColor=default;verticalAlign=top;aspect=fixed;imageAspect=0;image=data:image/png,iVBORw0KGgoAAAANSUhEUgAAAVIAAAByCAYAAAABDlltAAAAAXNSR0IArs4c6QAAAARnQU1BAACxjwv8YQUAAAAJcEhZcwAADsMAAA7DAcdvqGQAABHmSURBVHhe7Z09axtLF8ePny9iLrFjMG7SKmBSXAL2bVwl7lwEy5DGbsKFEFwEE7ikkZuAHW6hLnblJhaEFA+GuE1jAn55CP4keubMi3ZmdmZfpJW9u/7/YJC0O3u0mrN7dt40/xkiGooEAABgTP6jXwEAAIzJqEZ6eXnJL6ABLCwswF8NAb5qJ+zX4XBIMzMcQlEjBQCAiUEgBQCACUEgBQCACSkRSM9od2GBFhZ2xTsAAAAG1EgBAGBC7i+Qnu3Kka+FXdRvK6GO5Qkfh0G5tA7USAEAYEIyAukt9de5T1Sl9f5vvd3ltr8+ysPJfciaflWT1ql/q4/ZPFJZjjblvnXeAcYiqzzPdu3y52T3cRsfs1+0r9b7Yqu9T6XdM+NL5UNDzP/wcZhguezu0rosP7dsk/vH8o/0n31f+cfEfQKmRySQ8k30nD781B8FPz98IO3+EXyTPrczCY42jePY2ZvimJf0+fJSTkr+9vaxzAPukyPaHAXLhMHf7CtD2v9Hm/Z+Rbb/QWEevaLXL/nNTxr81/LM2XdV5i9f08as3CK4ok/rti9+0ofnycMRPrkfwoH09r80kL54Qm+/qSB4+Vl6OuG2T5/Ym0/e0jcdKE2eo+/Ca7e/hctdZjfeywtiduNLYu/lZ3nsl+RKASXJKs/l99o3Mn2jt0/Exp8Dsu9Xvhl/PlbHXX7ZoNkK/A8fh4mVy/Krt6K0ucLybxIUv6tw+fLPZfmqEI5Z+abK+/KzqKYwR8S3XO49CaZGJJD+j90lPGg9CZf/1E7TmDw/P9Bz04wwTZar33Q7+wep+me4BgTuBreZ59YyE0TAfGXdrFX4X70DRZnd0LVSHRRFOJVxVARF2zXCKfQ6cQr9qZ1y9VuUOHxybwQD6e1vvy6ZgX6qOolrNcLJ77+pp2ziWMxBvVPOdlUzb+QjXSPNoRr/g7Is66goa4+6Wf9k5Vn5soRP7pxgIJ39Q/dlHn0adWTf9j9Z/TKC2UcqSB5tOv0vZ7tWsBRP2S/SkUkTZNPvrMGTslqs8kwFxLN/IzVSl8r8b4CPw/jlsvxKPeiOvtOuqo7SyjM//Jkaq8A05QWP/xD5yvgEVEq4aT9qxnFHtmoiPB+wWy1mn9GK3sCd2ab5aFoS7OT1kTeX6ZWuCj15pC8M43RdW8WI7oQEyjMJiGp0eGHzip44ToxQhf8Z+DhMtFxm6Zks1CM64nJ0BpkSRuX9/INqypvmfxGfgKkQDqTcLB/VIpmX9PnLa93naZiljS9+U5EHJ96LozXmBhaJm5hP3n5LBhxGfUKgEkLlufyekjEi9s0/tKI/ZeP7Xxz7zxj+h4/DZJTL7MbrUbm7g0wGcS+aLjOGB5ZGzfYCPgFTAeuRNhB+MN25v7iFIWtAPJ0NN2ZRSvsqWs72dEKU/33DfsV6pCAHnkdqT/QWn/82zchHuvYDpsHZv6qcn7x9hWDZIBBIQYSkfzSZNsVNfIz+Vk/yLzLVn2lPcQJNAIEUBOC+NruPlOEm5Zfg4AeoEjTdmwj6SBvIvfSRgrGAr9qJ30c6CqQAAACKc3FxQUtLS/L9KJBydAXNgJ+C8FczgK/aifErRu0BAKAiEEgBAGBCEEgBAGBCEEgBAGBCcgLpgLZmntL+jf5ocbP/VHa0yvR0nwJZPOK2bMrYLZz3Zp+ezmyJM7DJOp8b2n+q7Yq05R4IAAAOkUBqAskqHeotNhzA5o9f0PVwKEeuTpd2aD4abbJt2ZSxWybv4OMOUe+NXrAj73x4/zwdv7iWdjmtXRV5UAAAJIOtgpWrdsFzM0S8SLjudYbUPRXvTodd6gx7Ilol8DYayt2G696wQ12xJ022LZsydsvmTb4373yS/fXF9xeoLw/SV6fdIXV6w+it3gKMX038FCkdSBMCwSYYsK6HvY4X2FKEA9eIMnbL5GWnBk8sdD5Ffsf9E/cXqBuur9T11REXnXxg63vPDTrmGlSv5FcCzDGcnAu1iG3G2DUpXflIHZ8KjHEbp117u0jWObrnnxELGgD/BvPKqfxg0/UvOu8s0rz+WBll7BbOK5rpe4fUXSu2CqcwTL/OO7RI3Kdq+kjz+3UBKMP5zjxtUJ/vRJlkt5TXFL7Y+0jU5/0/aHtOd2XtLJEIS/q4a+pdrNKM152VZ/tm39jV+7uHtGrZSH1Pn2hj1e0Ey7KxciC2iWgqAq/qdjvQHWpeV9zwdIl25v1xi+ZS6aj9xdV0Ik4Zu07em690TD16UzSO3lzRhXg5PuHrRDn8uketcjioAd1T+sHRUbNycErd82P6al/mL97IAKoYkOzmvz6wFuaeo+1+jzqHe+6DPsf23PaBZVfsXxNB7+JKB9rA98xtU19UP22ybYTQdvvb4qw1K2+o1zmkk5bcWJUG0qXHVulWSBm7dl45yPTir8R5BXnxJnH43Ha/5g7n2Qem9swJQb/udBb9ttQ8LXbO6de1/ihwrnn5gF+i1G0w9xe98I4rYptrh6Prxa5tRr5n7rH6P7lN1EYIafdcVEh0fpnmaed8epWvu6Z8IJ1fpM75L9EIrpgydgvlHdDJYUfE0bJhNEx9Hb5CB6a5JJNdawHNgLuU9NvKsW2rh+78r3fJ9cLN8FKMa6NrdUskya49N5nygXTusXhmXZATV7gJfd6lwl2RIcrYLZJ3cEKH3XdOEySXwBPeMK3aNgCqxpZx/4Sud0Ze8x1KVUJtbNt8T3BA0/2WzM0Vd2bZpL9ncGLVOAvZ8Iidf8sYjUClyZgiZI3i8UgdjxZK5Ih6aEQuNgPAG5UsaDczrx5VzB59z/ht1iik/z11IO4vUDdcXyWj3cm1qbeNNoSvXf+6jB2Xadu/N+Vnsd+7j5zrnUfs7TwFbKhj3NkA0m5qm/u5SRi/yrIRaaw+0rntH2o0UPd3rJLbwT0uZexm5i07yGTBdq97F7Sq7cqRxh9WJzkAE9LpndLinrq+ZF/h0ulodDuGf13ycfJPI95xmbblwBEPnur9G0R9EeFsVg6uxZ2T3FczJ2tu072ADTOQJM/VGs2Xo/vGrkgna+3phmrleqSDrRnaW7xuTf+LD1+EbfJXm3F9lfxrrvprc3q25dQl7hPNCfYPCeNXfmUqHbWvBzzI1KV3LQ2iANw117/OA7MBgE0LAymPYmPkGoBxGGy50+e4NrqKikkuLQykAIBxWTlYoxPRXOUmKyf1LydUTPKAZlMDcfvdQJ2Br9qJ8Su/ys8iwcsAAFASqIg2HNRymgN81U78Gin6SAEAYEIQSAEAYEIQSAEAYEIQSAEAYEJyAmlcadNZjzBL6IqFsEw+ThGBOkNhu4LCeaEiCgCYIpFAagLJpCqiws4epeQRnka0O4rbLZcXKqIA3CFQEVXIJbvk0luhpeZ4m7fMl1xKq+CSWFGFwTJ2y+b1lt+L/jZ7f33x/QXqy4P0VfQebw/GryZ+BmukvGRXdKWX0CK0ckHkCeU4ytgtk9db4Dnzt4ln6Nfj8xJieQCUQbWGuEUW75ZSebYGpuWUdD85x3ByWmBFbDPGrklpaZrU8akaZtwGr7wmpUfO9VJ81jm6598uUcnyg00TqojK1baXHqfX94SKKHggQEWU80BFNEqerhEXJq8kY8sUFAEqoqBVQEVUHAQV0ShZukZc5R93JRmoiGYBFdGmARVRTlARLakiqvpTWAokU+ESKqJjAhXR5gMV0aZTPpCWVBEdbBXTpCllFyqioE2EBk9toCLaCDKmaGRMEbKmN4gHUljt034fwttf2K78mJFXbA0pMbpk/DZrGpX/PXUg7i9QN1xfFVD6jFy7/nUZOy7Ttn8/ys9iv3cfOdc7VESDGL/KslFJvQkTDjaMKhidbK/bBW0KOZXs/a79QnY1mXlzg1/8t6mLVtvNtXP38HmBZuD6SgW2Tu90FPRksq9dncfZpHGuS5GSigNTxHbg2k7N+UwC8uh4L08pG9b3O/erSKHf2BT4/M0rp1auRwoVUVAXXF/xeAFURNuA8Su/MpWO2tcDqIgCUCVQEc2nhYEUKqIAjAtURMejhYEUADAuUBEdD2g2NRC33w3UGfiqnRi/8qv8LBK8DAAAJYGKaMNBLac5wFftxK+Roo8UAAAmBIEUAAAmBIEUAAAmBIEUAAAmJCeQVqAiqpfdGuX1VvT2KW63RF6oiAIApkgkkJpAMqmKKOe9ojWdbzg8pe4hVEQBaDVQEVXI1V3k0iyhFZJ4m7dyi1yZqdiSWIltnzJ2y+ZNfkP2b8s6v/rg+wvUlwfpq9RqUO3D+NXEz2CNdNoqosEFEMrYLZMXKqKgNqjWEFREOUFFdHwV0Zt92pAySoEFEKAiCh4IUBHlPFARjRLWNbIGm+Z/0Tt9YZQBKqKgVUBFVBwEFdEoYV0jW5xNryzjPUXzgIpoFt6sCKiI1h6oiHKCimhJFVEbEVRFFa9zeJK+2aEiOiZQEW0+UBFtOuUDaUkV0cJARRQ8VEKDpzZQEW0EGVM0MqYIWdMbWNQqrPYpjnfnKClRLLPNyVvGbk5e/T3Zs5gyfps1jcr/njoQ9xeoG66vElG45Nr07onItetfl7HjMm1795D6LPZ795FzvUtFUGtbARvqGHcqorSb2haartgMjF9l2aik3oQJBxtGFYxOttdDAc/kE8lRPvSdIihql8nMmxv84r/NOedcO3cPnxdoBq6vVGCDiqhKod/YFPj8zSunVq5HChVRUBdcX/H8S6iItgHjV35lKh21rwdQEQWgSqAimk8LAylURAEYF6iIjkcLAykAYFygIjoe0GxqIG6/G6gz8FU7MX7lV/lZJHgZAABKAhXRhoNaTnOAr9qJXyNFHykAAEwIAikAAEwIAikAAEwIAikAAExINJA66w2m5Apc6pD3IeOUU2PKSy3Hlrk0rSVxEfyN0YP9NVqVBMdDQEp9lFzvF0xOMJDyRTsNNc9p5QWC7qksp1H6Ya1GXktW6E2vQ4d78YDPy7d17IW5nd+opTa8B4YKuHu0eG2VhUh9+lhvyZhxlDcfqFpnXeG5GeJaM/CqSN7KLHLlpdCSV3XI+/Bw/cVF00mt8tMIpE/DK3D5/g7+Rv/4wPJt943vqyipFZQKMM4xoBKMX038TNdIQ4vMVqHmOa28oBCqpqabulyLcWozShUyX7nSFwJ0m9BJgyG23WNum951z+nYEStS3Hw9pvPuWvZfE+WCwQYtdHha978zpssmrrxp/GFSvlqn9Jdf4OzrgA1QHelAOhU1T8G08oJcZDdJjjIkE1SujCo/ckBYJWFU7RNp7YoDc2x7GBZOO9/56N3cBWWx5QNXawwVWS3+3gmXzXxUebO8WqePDKzyK42dNbp6IP3Fd0mpUfux1TxzmFbeB8XhqlXrSGoofPMWUYaUhJQrM5Uf3cC1sm3yxrYHCKlJDj7STq76qwhK83yCb6waaEAgrnYUL5vyap0+IfXRFdrGSk6VUyqQjqvmmce08j4o/MEmU0Oxa20WIWVIp2zlcVnKjzxYxFLVdtBmYttjzNFfL9xBp9Qgk8F5WKzSRa9pi3eXLRtdozS/OU+t0yfie1A96UBauZqnZlp5wRTJVn6c2/4hP5+SDnA6OMS2x5jbfpdor9/s015s/UvvYeEEUdlfWv8+9OJlo/pSJ1L85C4y/RZMl3QgLaLQaahDXlCAtIKjowwZIuSDCLK/Tsps7zmDUbHtaVZoTQ86FRpkCpI/napO5JbNOGqdPlwhKehDMBmBpr1ufmxYTS3Z0aL7okSN4elo9Pae8oLi6JFxuyx5FDe/laiCWzK4pEhWUB/QfioCcDMytl2/jSAHnY4/0scig0wR5rb71CMexU6PTA+2/BkH90FO2ditMD8Iivtjg/tVfLJabsb3jg9D5wCqIDjXLVOhc1rKn0XzPnC4PGx8dUmV7LLMU4aMK1c6PhDJdZn9vcn3xbZno88xMi+y1FxZOZ/UfL9K93X58HfbxMsmrbzp5OVySc0bjRzj/Vj3OzEXuwq4LM0rJ6xH2kC4b21Sf8mpTVCGnDpV+ArUD+NXfmVKjdqD9gBlSACqA4H0AQBlSACmC5r2DaR8c1H9oyYZX+JpTVCGvAvQtG8nftMegbSB4OZsDvBVO4kGUgAAAMUJqogCAAAYDww2AQDARBD9Hwvp+6CAS7ubAAAAAElFTkSuQmCC;" parent="1" vertex="1">
          <mxGeometry x="670" y="1020" width="338" height="114" as="geometry" />
        </mxCell>
        <mxCell id="SgqDhj5_bFRxwwRKQSyi-91" value="Public subnet" style="points=[[0,0],[0.25,0],[0.5,0],[0.75,0],[1,0],[1,0.25],[1,0.5],[1,0.75],[1,1],[0.75,1],[0.5,1],[0.25,1],[0,1],[0,0.75],[0,0.5],[0,0.25]];outlineConnect=0;gradientColor=none;html=1;whiteSpace=wrap;fontSize=12;fontStyle=0;container=1;pointerEvents=0;collapsible=0;recursiveResize=0;shape=mxgraph.aws4.group;grIcon=mxgraph.aws4.group_security_group;grStroke=0;strokeColor=#7AA116;fillColor=#F2F6E8;verticalAlign=top;align=left;spacingLeft=30;fontColor=#248814;dashed=0;" parent="1" vertex="1">
          <mxGeometry x="1010" y="340" width="220" height="160" as="geometry" />
        </mxCell>
        <mxCell id="SgqDhj5_bFRxwwRKQSyi-92" value="" style="sketch=0;outlineConnect=0;fontColor=#232F3E;gradientColor=none;fillColor=#8C4FFF;strokeColor=none;dashed=0;verticalLabelPosition=bottom;verticalAlign=top;align=center;html=1;fontSize=12;fontStyle=0;aspect=fixed;pointerEvents=1;shape=mxgraph.aws4.nat_gateway;" parent="SgqDhj5_bFRxwwRKQSyi-91" vertex="1">
          <mxGeometry x="80" y="57.5" width="49" height="49" as="geometry" />
        </mxCell>
        <mxCell id="SgqDhj5_bFRxwwRKQSyi-93" value="10.3.1.0/24" style="text;html=1;align=center;verticalAlign=middle;resizable=0;points=[];autosize=1;strokeColor=none;fillColor=none;" parent="SgqDhj5_bFRxwwRKQSyi-91" vertex="1">
          <mxGeometry x="20" y="20" width="80" height="30" as="geometry" />
        </mxCell>
        <mxCell id="SgqDhj5_bFRxwwRKQSyi-95" value="Private subnet" style="points=[[0,0],[0.25,0],[0.5,0],[0.75,0],[1,0],[1,0.25],[1,0.5],[1,0.75],[1,1],[0.75,1],[0.5,1],[0.25,1],[0,1],[0,0.75],[0,0.5],[0,0.25]];outlineConnect=0;gradientColor=none;html=1;whiteSpace=wrap;fontSize=12;fontStyle=0;container=1;pointerEvents=0;collapsible=0;recursiveResize=0;shape=mxgraph.aws4.group;grIcon=mxgraph.aws4.group_security_group;grStroke=0;strokeColor=#00A4A6;fillColor=#E6F6F7;verticalAlign=top;align=left;spacingLeft=30;fontColor=#147EBA;dashed=0;" parent="1" vertex="1">
          <mxGeometry x="1010" y="700" width="220" height="160" as="geometry" />
        </mxCell>
        <mxCell id="SgqDhj5_bFRxwwRKQSyi-96" value="TGW ENI" style="sketch=0;outlineConnect=0;fontColor=#232F3E;gradientColor=none;fillColor=#8C4FFF;strokeColor=none;dashed=0;verticalLabelPosition=bottom;verticalAlign=top;align=center;html=1;fontSize=12;fontStyle=0;aspect=fixed;pointerEvents=1;shape=mxgraph.aws4.transit_gateway_attachment;" parent="SgqDhj5_bFRxwwRKQSyi-95" vertex="1">
          <mxGeometry x="87.5" y="57.5" width="45" height="45" as="geometry" />
        </mxCell>
        <mxCell id="SgqDhj5_bFRxwwRKQSyi-97" value="10.3.0.0/16" style="text;html=1;align=center;verticalAlign=middle;resizable=0;points=[];autosize=1;strokeColor=none;fillColor=none;" parent="1" vertex="1">
          <mxGeometry x="1010" y="310" width="80" height="30" as="geometry" />
        </mxCell>
        <mxCell id="SgqDhj5_bFRxwwRKQSyi-98" value="Private subnet" style="points=[[0,0],[0.25,0],[0.5,0],[0.75,0],[1,0],[1,0.25],[1,0.5],[1,0.75],[1,1],[0.75,1],[0.5,1],[0.25,1],[0,1],[0,0.75],[0,0.5],[0,0.25]];outlineConnect=0;gradientColor=none;html=1;whiteSpace=wrap;fontSize=12;fontStyle=0;container=1;pointerEvents=0;collapsible=0;recursiveResize=0;shape=mxgraph.aws4.group;grIcon=mxgraph.aws4.group_security_group;grStroke=0;strokeColor=#00A4A6;fillColor=#E6F6F7;verticalAlign=top;align=left;spacingLeft=30;fontColor=#147EBA;dashed=0;" parent="1" vertex="1">
          <mxGeometry x="1010" y="520" width="220" height="150" as="geometry" />
        </mxCell>
        <mxCell id="SgqDhj5_bFRxwwRKQSyi-99" value="10.3.2.0/24" style="text;html=1;align=center;verticalAlign=middle;resizable=0;points=[];autosize=1;strokeColor=none;fillColor=none;" parent="SgqDhj5_bFRxwwRKQSyi-98" vertex="1">
          <mxGeometry x="30" y="20" width="80" height="30" as="geometry" />
        </mxCell>
        <mxCell id="SgqDhj5_bFRxwwRKQSyi-103" value="10.3.3.0/24" style="text;html=1;align=center;verticalAlign=middle;resizable=0;points=[];autosize=1;strokeColor=none;fillColor=none;" parent="1" vertex="1">
          <mxGeometry x="1030" y="720" width="80" height="30" as="geometry" />
        </mxCell>
        <mxCell id="SgqDhj5_bFRxwwRKQSyi-228" value="" style="shape=table;startSize=0;container=1;collapsible=0;childLayout=tableLayout;" parent="1" vertex="1">
          <mxGeometry x="1816" y="736" width="220" height="60" as="geometry" />
        </mxCell>
        <mxCell id="SgqDhj5_bFRxwwRKQSyi-229" value="" style="shape=tableRow;horizontal=0;startSize=0;swimlaneHead=0;swimlaneBody=0;strokeColor=inherit;top=0;left=0;bottom=0;right=0;collapsible=0;dropTarget=0;fillColor=none;points=[[0,0.5],[1,0.5]];portConstraint=eastwest;" parent="SgqDhj5_bFRxwwRKQSyi-228" vertex="1">
          <mxGeometry width="220" height="20" as="geometry" />
        </mxCell>
        <mxCell id="SgqDhj5_bFRxwwRKQSyi-230" value="dest" style="shape=partialRectangle;html=1;whiteSpace=wrap;connectable=0;strokeColor=inherit;overflow=hidden;fillColor=none;top=0;left=0;bottom=0;right=0;pointerEvents=1;" parent="SgqDhj5_bFRxwwRKQSyi-229" vertex="1">
          <mxGeometry width="110" height="20" as="geometry">
            <mxRectangle width="110" height="20" as="alternateBounds" />
          </mxGeometry>
        </mxCell>
        <mxCell id="SgqDhj5_bFRxwwRKQSyi-231" value="target" style="shape=partialRectangle;html=1;whiteSpace=wrap;connectable=0;strokeColor=inherit;overflow=hidden;fillColor=none;top=0;left=0;bottom=0;right=0;pointerEvents=1;" parent="SgqDhj5_bFRxwwRKQSyi-229" vertex="1">
          <mxGeometry x="110" width="110" height="20" as="geometry">
            <mxRectangle width="110" height="20" as="alternateBounds" />
          </mxGeometry>
        </mxCell>
        <mxCell id="SgqDhj5_bFRxwwRKQSyi-232" value="" style="shape=tableRow;horizontal=0;startSize=0;swimlaneHead=0;swimlaneBody=0;strokeColor=inherit;top=0;left=0;bottom=0;right=0;collapsible=0;dropTarget=0;fillColor=none;points=[[0,0.5],[1,0.5]];portConstraint=eastwest;" parent="SgqDhj5_bFRxwwRKQSyi-228" vertex="1">
          <mxGeometry y="20" width="220" height="20" as="geometry" />
        </mxCell>
        <mxCell id="SgqDhj5_bFRxwwRKQSyi-233" value="10.3.0.0/16" style="shape=partialRectangle;html=1;whiteSpace=wrap;connectable=0;strokeColor=inherit;overflow=hidden;fillColor=none;top=0;left=0;bottom=0;right=0;pointerEvents=1;" parent="SgqDhj5_bFRxwwRKQSyi-232" vertex="1">
          <mxGeometry width="110" height="20" as="geometry">
            <mxRectangle width="110" height="20" as="alternateBounds" />
          </mxGeometry>
        </mxCell>
        <mxCell id="SgqDhj5_bFRxwwRKQSyi-234" value="local" style="shape=partialRectangle;html=1;whiteSpace=wrap;connectable=0;strokeColor=inherit;overflow=hidden;fillColor=none;top=0;left=0;bottom=0;right=0;pointerEvents=1;" parent="SgqDhj5_bFRxwwRKQSyi-232" vertex="1">
          <mxGeometry x="110" width="110" height="20" as="geometry">
            <mxRectangle width="110" height="20" as="alternateBounds" />
          </mxGeometry>
        </mxCell>
        <mxCell id="SgqDhj5_bFRxwwRKQSyi-235" value="" style="shape=tableRow;horizontal=0;startSize=0;swimlaneHead=0;swimlaneBody=0;strokeColor=inherit;top=0;left=0;bottom=0;right=0;collapsible=0;dropTarget=0;fillColor=none;points=[[0,0.5],[1,0.5]];portConstraint=eastwest;" parent="SgqDhj5_bFRxwwRKQSyi-228" vertex="1">
          <mxGeometry y="40" width="220" height="20" as="geometry" />
        </mxCell>
        <mxCell id="SgqDhj5_bFRxwwRKQSyi-236" value="0.0.0.0/0" style="shape=partialRectangle;html=1;whiteSpace=wrap;connectable=0;strokeColor=inherit;overflow=hidden;fillColor=none;top=0;left=0;bottom=0;right=0;pointerEvents=1;" parent="SgqDhj5_bFRxwwRKQSyi-235" vertex="1">
          <mxGeometry width="110" height="20" as="geometry">
            <mxRectangle width="110" height="20" as="alternateBounds" />
          </mxGeometry>
        </mxCell>
        <mxCell id="SgqDhj5_bFRxwwRKQSyi-237" value="VPCE" style="shape=partialRectangle;html=1;whiteSpace=wrap;connectable=0;strokeColor=inherit;overflow=hidden;fillColor=none;top=0;left=0;bottom=0;right=0;pointerEvents=1;" parent="SgqDhj5_bFRxwwRKQSyi-235" vertex="1">
          <mxGeometry x="110" width="110" height="20" as="geometry">
            <mxRectangle width="110" height="20" as="alternateBounds" />
          </mxGeometry>
        </mxCell>
        <mxCell id="SgqDhj5_bFRxwwRKQSyi-259" value="" style="shape=table;startSize=0;container=1;collapsible=0;childLayout=tableLayout;" parent="1" vertex="1">
          <mxGeometry x="1816" y="551" width="220" height="79" as="geometry" />
        </mxCell>
        <mxCell id="SgqDhj5_bFRxwwRKQSyi-260" value="" style="shape=tableRow;horizontal=0;startSize=0;swimlaneHead=0;swimlaneBody=0;strokeColor=inherit;top=0;left=0;bottom=0;right=0;collapsible=0;dropTarget=0;fillColor=none;points=[[0,0.5],[1,0.5]];portConstraint=eastwest;" parent="SgqDhj5_bFRxwwRKQSyi-259" vertex="1">
          <mxGeometry width="220" height="20" as="geometry" />
        </mxCell>
        <mxCell id="SgqDhj5_bFRxwwRKQSyi-261" value="dest" style="shape=partialRectangle;html=1;whiteSpace=wrap;connectable=0;strokeColor=inherit;overflow=hidden;fillColor=none;top=0;left=0;bottom=0;right=0;pointerEvents=1;" parent="SgqDhj5_bFRxwwRKQSyi-260" vertex="1">
          <mxGeometry width="110" height="20" as="geometry">
            <mxRectangle width="110" height="20" as="alternateBounds" />
          </mxGeometry>
        </mxCell>
        <mxCell id="SgqDhj5_bFRxwwRKQSyi-262" value="target" style="shape=partialRectangle;html=1;whiteSpace=wrap;connectable=0;strokeColor=inherit;overflow=hidden;fillColor=none;top=0;left=0;bottom=0;right=0;pointerEvents=1;" parent="SgqDhj5_bFRxwwRKQSyi-260" vertex="1">
          <mxGeometry x="110" width="110" height="20" as="geometry">
            <mxRectangle width="110" height="20" as="alternateBounds" />
          </mxGeometry>
        </mxCell>
        <mxCell id="SgqDhj5_bFRxwwRKQSyi-263" value="" style="shape=tableRow;horizontal=0;startSize=0;swimlaneHead=0;swimlaneBody=0;strokeColor=inherit;top=0;left=0;bottom=0;right=0;collapsible=0;dropTarget=0;fillColor=none;points=[[0,0.5],[1,0.5]];portConstraint=eastwest;" parent="SgqDhj5_bFRxwwRKQSyi-259" vertex="1">
          <mxGeometry y="20" width="220" height="20" as="geometry" />
        </mxCell>
        <mxCell id="SgqDhj5_bFRxwwRKQSyi-264" value="10.3.0.0/16" style="shape=partialRectangle;html=1;whiteSpace=wrap;connectable=0;strokeColor=inherit;overflow=hidden;fillColor=none;top=0;left=0;bottom=0;right=0;pointerEvents=1;" parent="SgqDhj5_bFRxwwRKQSyi-263" vertex="1">
          <mxGeometry width="110" height="20" as="geometry">
            <mxRectangle width="110" height="20" as="alternateBounds" />
          </mxGeometry>
        </mxCell>
        <mxCell id="SgqDhj5_bFRxwwRKQSyi-265" value="local" style="shape=partialRectangle;html=1;whiteSpace=wrap;connectable=0;strokeColor=inherit;overflow=hidden;fillColor=none;top=0;left=0;bottom=0;right=0;pointerEvents=1;" parent="SgqDhj5_bFRxwwRKQSyi-263" vertex="1">
          <mxGeometry x="110" width="110" height="20" as="geometry">
            <mxRectangle width="110" height="20" as="alternateBounds" />
          </mxGeometry>
        </mxCell>
        <mxCell id="SgqDhj5_bFRxwwRKQSyi-338" value="" style="shape=tableRow;horizontal=0;startSize=0;swimlaneHead=0;swimlaneBody=0;strokeColor=inherit;top=0;left=0;bottom=0;right=0;collapsible=0;dropTarget=0;fillColor=none;points=[[0,0.5],[1,0.5]];portConstraint=eastwest;" parent="SgqDhj5_bFRxwwRKQSyi-259" vertex="1">
          <mxGeometry y="40" width="220" height="20" as="geometry" />
        </mxCell>
        <mxCell id="SgqDhj5_bFRxwwRKQSyi-339" value="10.0.0.0/8" style="shape=partialRectangle;html=1;whiteSpace=wrap;connectable=0;strokeColor=inherit;overflow=hidden;fillColor=none;top=0;left=0;bottom=0;right=0;pointerEvents=1;" parent="SgqDhj5_bFRxwwRKQSyi-338" vertex="1">
          <mxGeometry width="110" height="20" as="geometry">
            <mxRectangle width="110" height="20" as="alternateBounds" />
          </mxGeometry>
        </mxCell>
        <mxCell id="SgqDhj5_bFRxwwRKQSyi-340" value="TGW" style="shape=partialRectangle;html=1;whiteSpace=wrap;connectable=0;strokeColor=inherit;overflow=hidden;fillColor=none;top=0;left=0;bottom=0;right=0;pointerEvents=1;" parent="SgqDhj5_bFRxwwRKQSyi-338" vertex="1">
          <mxGeometry x="110" width="110" height="20" as="geometry">
            <mxRectangle width="110" height="20" as="alternateBounds" />
          </mxGeometry>
        </mxCell>
        <mxCell id="SgqDhj5_bFRxwwRKQSyi-266" value="" style="shape=tableRow;horizontal=0;startSize=0;swimlaneHead=0;swimlaneBody=0;strokeColor=inherit;top=0;left=0;bottom=0;right=0;collapsible=0;dropTarget=0;fillColor=none;points=[[0,0.5],[1,0.5]];portConstraint=eastwest;" parent="SgqDhj5_bFRxwwRKQSyi-259" vertex="1">
          <mxGeometry y="60" width="220" height="19" as="geometry" />
        </mxCell>
        <mxCell id="SgqDhj5_bFRxwwRKQSyi-267" value="0.0.0.0/0" style="shape=partialRectangle;html=1;whiteSpace=wrap;connectable=0;strokeColor=inherit;overflow=hidden;fillColor=none;top=0;left=0;bottom=0;right=0;pointerEvents=1;" parent="SgqDhj5_bFRxwwRKQSyi-266" vertex="1">
          <mxGeometry width="110" height="19" as="geometry">
            <mxRectangle width="110" height="19" as="alternateBounds" />
          </mxGeometry>
        </mxCell>
        <mxCell id="SgqDhj5_bFRxwwRKQSyi-268" value="NAT" style="shape=partialRectangle;html=1;whiteSpace=wrap;connectable=0;strokeColor=inherit;overflow=hidden;fillColor=none;top=0;left=0;bottom=0;right=0;pointerEvents=1;" parent="SgqDhj5_bFRxwwRKQSyi-266" vertex="1">
          <mxGeometry x="110" width="110" height="19" as="geometry">
            <mxRectangle width="110" height="19" as="alternateBounds" />
          </mxGeometry>
        </mxCell>
        <mxCell id="SgqDhj5_bFRxwwRKQSyi-274" value="" style="shape=table;startSize=0;container=1;collapsible=0;childLayout=tableLayout;" parent="1" vertex="1">
          <mxGeometry x="1816" y="372" width="220" height="78" as="geometry" />
        </mxCell>
        <mxCell id="SgqDhj5_bFRxwwRKQSyi-275" value="" style="shape=tableRow;horizontal=0;startSize=0;swimlaneHead=0;swimlaneBody=0;strokeColor=inherit;top=0;left=0;bottom=0;right=0;collapsible=0;dropTarget=0;fillColor=none;points=[[0,0.5],[1,0.5]];portConstraint=eastwest;" parent="SgqDhj5_bFRxwwRKQSyi-274" vertex="1">
          <mxGeometry width="220" height="20" as="geometry" />
        </mxCell>
        <mxCell id="SgqDhj5_bFRxwwRKQSyi-276" value="dest" style="shape=partialRectangle;html=1;whiteSpace=wrap;connectable=0;strokeColor=inherit;overflow=hidden;fillColor=none;top=0;left=0;bottom=0;right=0;pointerEvents=1;" parent="SgqDhj5_bFRxwwRKQSyi-275" vertex="1">
          <mxGeometry width="110" height="20" as="geometry">
            <mxRectangle width="110" height="20" as="alternateBounds" />
          </mxGeometry>
        </mxCell>
        <mxCell id="SgqDhj5_bFRxwwRKQSyi-277" value="target" style="shape=partialRectangle;html=1;whiteSpace=wrap;connectable=0;strokeColor=inherit;overflow=hidden;fillColor=none;top=0;left=0;bottom=0;right=0;pointerEvents=1;" parent="SgqDhj5_bFRxwwRKQSyi-275" vertex="1">
          <mxGeometry x="110" width="110" height="20" as="geometry">
            <mxRectangle width="110" height="20" as="alternateBounds" />
          </mxGeometry>
        </mxCell>
        <mxCell id="SgqDhj5_bFRxwwRKQSyi-278" value="" style="shape=tableRow;horizontal=0;startSize=0;swimlaneHead=0;swimlaneBody=0;strokeColor=inherit;top=0;left=0;bottom=0;right=0;collapsible=0;dropTarget=0;fillColor=none;points=[[0,0.5],[1,0.5]];portConstraint=eastwest;" parent="SgqDhj5_bFRxwwRKQSyi-274" vertex="1">
          <mxGeometry y="20" width="220" height="19" as="geometry" />
        </mxCell>
        <mxCell id="SgqDhj5_bFRxwwRKQSyi-279" value="10.3.0.0/16" style="shape=partialRectangle;html=1;whiteSpace=wrap;connectable=0;strokeColor=inherit;overflow=hidden;fillColor=none;top=0;left=0;bottom=0;right=0;pointerEvents=1;" parent="SgqDhj5_bFRxwwRKQSyi-278" vertex="1">
          <mxGeometry width="110" height="19" as="geometry">
            <mxRectangle width="110" height="19" as="alternateBounds" />
          </mxGeometry>
        </mxCell>
        <mxCell id="SgqDhj5_bFRxwwRKQSyi-280" value="local" style="shape=partialRectangle;html=1;whiteSpace=wrap;connectable=0;strokeColor=inherit;overflow=hidden;fillColor=none;top=0;left=0;bottom=0;right=0;pointerEvents=1;" parent="SgqDhj5_bFRxwwRKQSyi-278" vertex="1">
          <mxGeometry x="110" width="110" height="19" as="geometry">
            <mxRectangle width="110" height="19" as="alternateBounds" />
          </mxGeometry>
        </mxCell>
        <mxCell id="SgqDhj5_bFRxwwRKQSyi-281" value="" style="shape=tableRow;horizontal=0;startSize=0;swimlaneHead=0;swimlaneBody=0;strokeColor=inherit;top=0;left=0;bottom=0;right=0;collapsible=0;dropTarget=0;fillColor=none;points=[[0,0.5],[1,0.5]];portConstraint=eastwest;" parent="SgqDhj5_bFRxwwRKQSyi-274" vertex="1">
          <mxGeometry y="39" width="220" height="20" as="geometry" />
        </mxCell>
        <mxCell id="SgqDhj5_bFRxwwRKQSyi-282" value="10.0.0.0/8" style="shape=partialRectangle;html=1;whiteSpace=wrap;connectable=0;strokeColor=inherit;overflow=hidden;fillColor=none;top=0;left=0;bottom=0;right=0;pointerEvents=1;" parent="SgqDhj5_bFRxwwRKQSyi-281" vertex="1">
          <mxGeometry width="110" height="20" as="geometry">
            <mxRectangle width="110" height="20" as="alternateBounds" />
          </mxGeometry>
        </mxCell>
        <mxCell id="SgqDhj5_bFRxwwRKQSyi-283" value="VPCE" style="shape=partialRectangle;html=1;whiteSpace=wrap;connectable=0;strokeColor=inherit;overflow=hidden;fillColor=none;top=0;left=0;bottom=0;right=0;pointerEvents=1;" parent="SgqDhj5_bFRxwwRKQSyi-281" vertex="1">
          <mxGeometry x="110" width="110" height="20" as="geometry">
            <mxRectangle width="110" height="20" as="alternateBounds" />
          </mxGeometry>
        </mxCell>
        <mxCell id="SgqDhj5_bFRxwwRKQSyi-284" value="" style="shape=tableRow;horizontal=0;startSize=0;swimlaneHead=0;swimlaneBody=0;strokeColor=inherit;top=0;left=0;bottom=0;right=0;collapsible=0;dropTarget=0;fillColor=none;points=[[0,0.5],[1,0.5]];portConstraint=eastwest;" parent="SgqDhj5_bFRxwwRKQSyi-274" vertex="1">
          <mxGeometry y="59" width="220" height="19" as="geometry" />
        </mxCell>
        <mxCell id="SgqDhj5_bFRxwwRKQSyi-285" value="0.0.0.0/0" style="shape=partialRectangle;html=1;whiteSpace=wrap;connectable=0;strokeColor=inherit;overflow=hidden;fillColor=none;top=0;left=0;bottom=0;right=0;pointerEvents=1;" parent="SgqDhj5_bFRxwwRKQSyi-284" vertex="1">
          <mxGeometry width="110" height="19" as="geometry">
            <mxRectangle width="110" height="19" as="alternateBounds" />
          </mxGeometry>
        </mxCell>
        <mxCell id="SgqDhj5_bFRxwwRKQSyi-286" value="IGW" style="shape=partialRectangle;html=1;whiteSpace=wrap;connectable=0;strokeColor=inherit;overflow=hidden;fillColor=none;top=0;left=0;bottom=0;right=0;pointerEvents=1;" parent="SgqDhj5_bFRxwwRKQSyi-284" vertex="1">
          <mxGeometry x="110" width="110" height="19" as="geometry">
            <mxRectangle width="110" height="19" as="alternateBounds" />
          </mxGeometry>
        </mxCell>
        <mxCell id="SgqDhj5_bFRxwwRKQSyi-287" value="" style="shape=table;startSize=0;container=1;collapsible=0;childLayout=tableLayout;" parent="1" vertex="1">
          <mxGeometry x="1261" y="550" width="220" height="80" as="geometry" />
        </mxCell>
        <mxCell id="SgqDhj5_bFRxwwRKQSyi-288" value="" style="shape=tableRow;horizontal=0;startSize=0;swimlaneHead=0;swimlaneBody=0;strokeColor=inherit;top=0;left=0;bottom=0;right=0;collapsible=0;dropTarget=0;fillColor=none;points=[[0,0.5],[1,0.5]];portConstraint=eastwest;" parent="SgqDhj5_bFRxwwRKQSyi-287" vertex="1">
          <mxGeometry width="220" height="20" as="geometry" />
        </mxCell>
        <mxCell id="SgqDhj5_bFRxwwRKQSyi-289" value="dest" style="shape=partialRectangle;html=1;whiteSpace=wrap;connectable=0;strokeColor=inherit;overflow=hidden;fillColor=none;top=0;left=0;bottom=0;right=0;pointerEvents=1;" parent="SgqDhj5_bFRxwwRKQSyi-288" vertex="1">
          <mxGeometry width="110" height="20" as="geometry">
            <mxRectangle width="110" height="20" as="alternateBounds" />
          </mxGeometry>
        </mxCell>
        <mxCell id="SgqDhj5_bFRxwwRKQSyi-290" value="target" style="shape=partialRectangle;html=1;whiteSpace=wrap;connectable=0;strokeColor=inherit;overflow=hidden;fillColor=none;top=0;left=0;bottom=0;right=0;pointerEvents=1;" parent="SgqDhj5_bFRxwwRKQSyi-288" vertex="1">
          <mxGeometry x="110" width="110" height="20" as="geometry">
            <mxRectangle width="110" height="20" as="alternateBounds" />
          </mxGeometry>
        </mxCell>
        <mxCell id="SgqDhj5_bFRxwwRKQSyi-291" value="" style="shape=tableRow;horizontal=0;startSize=0;swimlaneHead=0;swimlaneBody=0;strokeColor=inherit;top=0;left=0;bottom=0;right=0;collapsible=0;dropTarget=0;fillColor=none;points=[[0,0.5],[1,0.5]];portConstraint=eastwest;" parent="SgqDhj5_bFRxwwRKQSyi-287" vertex="1">
          <mxGeometry y="20" width="220" height="20" as="geometry" />
        </mxCell>
        <mxCell id="SgqDhj5_bFRxwwRKQSyi-292" value="10.3.0.0/16" style="shape=partialRectangle;html=1;whiteSpace=wrap;connectable=0;strokeColor=inherit;overflow=hidden;fillColor=none;top=0;left=0;bottom=0;right=0;pointerEvents=1;" parent="SgqDhj5_bFRxwwRKQSyi-291" vertex="1">
          <mxGeometry width="110" height="20" as="geometry">
            <mxRectangle width="110" height="20" as="alternateBounds" />
          </mxGeometry>
        </mxCell>
        <mxCell id="SgqDhj5_bFRxwwRKQSyi-293" value="local" style="shape=partialRectangle;html=1;whiteSpace=wrap;connectable=0;strokeColor=inherit;overflow=hidden;fillColor=none;top=0;left=0;bottom=0;right=0;pointerEvents=1;" parent="SgqDhj5_bFRxwwRKQSyi-291" vertex="1">
          <mxGeometry x="110" width="110" height="20" as="geometry">
            <mxRectangle width="110" height="20" as="alternateBounds" />
          </mxGeometry>
        </mxCell>
        <mxCell id="SgqDhj5_bFRxwwRKQSyi-294" value="" style="shape=tableRow;horizontal=0;startSize=0;swimlaneHead=0;swimlaneBody=0;strokeColor=inherit;top=0;left=0;bottom=0;right=0;collapsible=0;dropTarget=0;fillColor=none;points=[[0,0.5],[1,0.5]];portConstraint=eastwest;" parent="SgqDhj5_bFRxwwRKQSyi-287" vertex="1">
          <mxGeometry y="40" width="220" height="20" as="geometry" />
        </mxCell>
        <mxCell id="SgqDhj5_bFRxwwRKQSyi-295" value="10.0.0.0/8" style="shape=partialRectangle;html=1;whiteSpace=wrap;connectable=0;strokeColor=inherit;overflow=hidden;fillColor=none;top=0;left=0;bottom=0;right=0;pointerEvents=1;" parent="SgqDhj5_bFRxwwRKQSyi-294" vertex="1">
          <mxGeometry width="110" height="20" as="geometry">
            <mxRectangle width="110" height="20" as="alternateBounds" />
          </mxGeometry>
        </mxCell>
        <mxCell id="SgqDhj5_bFRxwwRKQSyi-296" value="TGW" style="shape=partialRectangle;html=1;whiteSpace=wrap;connectable=0;strokeColor=inherit;overflow=hidden;fillColor=none;top=0;left=0;bottom=0;right=0;pointerEvents=1;" parent="SgqDhj5_bFRxwwRKQSyi-294" vertex="1">
          <mxGeometry x="110" width="110" height="20" as="geometry">
            <mxRectangle width="110" height="20" as="alternateBounds" />
          </mxGeometry>
        </mxCell>
        <mxCell id="SgqDhj5_bFRxwwRKQSyi-332" value="" style="shape=tableRow;horizontal=0;startSize=0;swimlaneHead=0;swimlaneBody=0;strokeColor=inherit;top=0;left=0;bottom=0;right=0;collapsible=0;dropTarget=0;fillColor=none;points=[[0,0.5],[1,0.5]];portConstraint=eastwest;" parent="SgqDhj5_bFRxwwRKQSyi-287" vertex="1">
          <mxGeometry y="60" width="220" height="20" as="geometry" />
        </mxCell>
        <mxCell id="SgqDhj5_bFRxwwRKQSyi-333" value="0.0.0.0/0" style="shape=partialRectangle;html=1;whiteSpace=wrap;connectable=0;strokeColor=inherit;overflow=hidden;fillColor=none;top=0;left=0;bottom=0;right=0;pointerEvents=1;" parent="SgqDhj5_bFRxwwRKQSyi-332" vertex="1">
          <mxGeometry width="110" height="20" as="geometry">
            <mxRectangle width="110" height="20" as="alternateBounds" />
          </mxGeometry>
        </mxCell>
        <mxCell id="SgqDhj5_bFRxwwRKQSyi-334" value="NAT" style="shape=partialRectangle;html=1;whiteSpace=wrap;connectable=0;strokeColor=inherit;overflow=hidden;fillColor=none;top=0;left=0;bottom=0;right=0;pointerEvents=1;" parent="SgqDhj5_bFRxwwRKQSyi-332" vertex="1">
          <mxGeometry x="110" width="110" height="20" as="geometry">
            <mxRectangle width="110" height="20" as="alternateBounds" />
          </mxGeometry>
        </mxCell>
        <mxCell id="SgqDhj5_bFRxwwRKQSyi-297" value="" style="shape=table;startSize=0;container=1;collapsible=0;childLayout=tableLayout;" parent="1" vertex="1">
          <mxGeometry x="1260" y="736" width="220" height="64" as="geometry" />
        </mxCell>
        <mxCell id="SgqDhj5_bFRxwwRKQSyi-298" value="" style="shape=tableRow;horizontal=0;startSize=0;swimlaneHead=0;swimlaneBody=0;strokeColor=inherit;top=0;left=0;bottom=0;right=0;collapsible=0;dropTarget=0;fillColor=none;points=[[0,0.5],[1,0.5]];portConstraint=eastwest;" parent="SgqDhj5_bFRxwwRKQSyi-297" vertex="1">
          <mxGeometry width="220" height="23" as="geometry" />
        </mxCell>
        <mxCell id="SgqDhj5_bFRxwwRKQSyi-299" value="dest" style="shape=partialRectangle;html=1;whiteSpace=wrap;connectable=0;strokeColor=inherit;overflow=hidden;fillColor=none;top=0;left=0;bottom=0;right=0;pointerEvents=1;" parent="SgqDhj5_bFRxwwRKQSyi-298" vertex="1">
          <mxGeometry width="110" height="23" as="geometry">
            <mxRectangle width="110" height="23" as="alternateBounds" />
          </mxGeometry>
        </mxCell>
        <mxCell id="SgqDhj5_bFRxwwRKQSyi-300" value="target" style="shape=partialRectangle;html=1;whiteSpace=wrap;connectable=0;strokeColor=inherit;overflow=hidden;fillColor=none;top=0;left=0;bottom=0;right=0;pointerEvents=1;" parent="SgqDhj5_bFRxwwRKQSyi-298" vertex="1">
          <mxGeometry x="110" width="110" height="23" as="geometry">
            <mxRectangle width="110" height="23" as="alternateBounds" />
          </mxGeometry>
        </mxCell>
        <mxCell id="SgqDhj5_bFRxwwRKQSyi-301" value="" style="shape=tableRow;horizontal=0;startSize=0;swimlaneHead=0;swimlaneBody=0;strokeColor=inherit;top=0;left=0;bottom=0;right=0;collapsible=0;dropTarget=0;fillColor=none;points=[[0,0.5],[1,0.5]];portConstraint=eastwest;" parent="SgqDhj5_bFRxwwRKQSyi-297" vertex="1">
          <mxGeometry y="23" width="220" height="20" as="geometry" />
        </mxCell>
        <mxCell id="SgqDhj5_bFRxwwRKQSyi-302" value="10.3.0.0/16" style="shape=partialRectangle;html=1;whiteSpace=wrap;connectable=0;strokeColor=inherit;overflow=hidden;fillColor=none;top=0;left=0;bottom=0;right=0;pointerEvents=1;" parent="SgqDhj5_bFRxwwRKQSyi-301" vertex="1">
          <mxGeometry width="110" height="20" as="geometry">
            <mxRectangle width="110" height="20" as="alternateBounds" />
          </mxGeometry>
        </mxCell>
        <mxCell id="SgqDhj5_bFRxwwRKQSyi-303" value="local" style="shape=partialRectangle;html=1;whiteSpace=wrap;connectable=0;strokeColor=inherit;overflow=hidden;fillColor=none;top=0;left=0;bottom=0;right=0;pointerEvents=1;" parent="SgqDhj5_bFRxwwRKQSyi-301" vertex="1">
          <mxGeometry x="110" width="110" height="20" as="geometry">
            <mxRectangle width="110" height="20" as="alternateBounds" />
          </mxGeometry>
        </mxCell>
        <mxCell id="SgqDhj5_bFRxwwRKQSyi-304" value="" style="shape=tableRow;horizontal=0;startSize=0;swimlaneHead=0;swimlaneBody=0;strokeColor=inherit;top=0;left=0;bottom=0;right=0;collapsible=0;dropTarget=0;fillColor=none;points=[[0,0.5],[1,0.5]];portConstraint=eastwest;" parent="SgqDhj5_bFRxwwRKQSyi-297" vertex="1">
          <mxGeometry y="43" width="220" height="21" as="geometry" />
        </mxCell>
        <mxCell id="SgqDhj5_bFRxwwRKQSyi-305" value="0.0.0.0/0" style="shape=partialRectangle;html=1;whiteSpace=wrap;connectable=0;strokeColor=inherit;overflow=hidden;fillColor=none;top=0;left=0;bottom=0;right=0;pointerEvents=1;" parent="SgqDhj5_bFRxwwRKQSyi-304" vertex="1">
          <mxGeometry width="110" height="21" as="geometry">
            <mxRectangle width="110" height="21" as="alternateBounds" />
          </mxGeometry>
        </mxCell>
        <mxCell id="SgqDhj5_bFRxwwRKQSyi-306" value="NAT" style="shape=partialRectangle;html=1;whiteSpace=wrap;connectable=0;strokeColor=inherit;overflow=hidden;fillColor=none;top=0;left=0;bottom=0;right=0;pointerEvents=1;" parent="SgqDhj5_bFRxwwRKQSyi-304" vertex="1">
          <mxGeometry x="110" width="110" height="21" as="geometry">
            <mxRectangle width="110" height="21" as="alternateBounds" />
          </mxGeometry>
        </mxCell>
        <mxCell id="SgqDhj5_bFRxwwRKQSyi-357" value="" style="shape=table;startSize=0;container=1;collapsible=0;childLayout=tableLayout;" parent="1" vertex="1">
          <mxGeometry x="60" y="656" width="220" height="40" as="geometry" />
        </mxCell>
        <mxCell id="SgqDhj5_bFRxwwRKQSyi-358" value="" style="shape=tableRow;horizontal=0;startSize=0;swimlaneHead=0;swimlaneBody=0;strokeColor=inherit;top=0;left=0;bottom=0;right=0;collapsible=0;dropTarget=0;fillColor=none;points=[[0,0.5],[1,0.5]];portConstraint=eastwest;" parent="SgqDhj5_bFRxwwRKQSyi-357" vertex="1">
          <mxGeometry width="220" height="20" as="geometry" />
        </mxCell>
        <mxCell id="SgqDhj5_bFRxwwRKQSyi-359" value="dest" style="shape=partialRectangle;html=1;whiteSpace=wrap;connectable=0;strokeColor=inherit;overflow=hidden;fillColor=none;top=0;left=0;bottom=0;right=0;pointerEvents=1;" parent="SgqDhj5_bFRxwwRKQSyi-358" vertex="1">
          <mxGeometry width="110" height="20" as="geometry">
            <mxRectangle width="110" height="20" as="alternateBounds" />
          </mxGeometry>
        </mxCell>
        <mxCell id="SgqDhj5_bFRxwwRKQSyi-360" value="target" style="shape=partialRectangle;html=1;whiteSpace=wrap;connectable=0;strokeColor=inherit;overflow=hidden;fillColor=none;top=0;left=0;bottom=0;right=0;pointerEvents=1;" parent="SgqDhj5_bFRxwwRKQSyi-358" vertex="1">
          <mxGeometry x="110" width="110" height="20" as="geometry">
            <mxRectangle width="110" height="20" as="alternateBounds" />
          </mxGeometry>
        </mxCell>
        <mxCell id="SgqDhj5_bFRxwwRKQSyi-361" value="" style="shape=tableRow;horizontal=0;startSize=0;swimlaneHead=0;swimlaneBody=0;strokeColor=inherit;top=0;left=0;bottom=0;right=0;collapsible=0;dropTarget=0;fillColor=none;points=[[0,0.5],[1,0.5]];portConstraint=eastwest;" parent="SgqDhj5_bFRxwwRKQSyi-357" vertex="1">
          <mxGeometry y="20" width="220" height="20" as="geometry" />
        </mxCell>
        <mxCell id="SgqDhj5_bFRxwwRKQSyi-362" value="10.1.0.0/16" style="shape=partialRectangle;html=1;whiteSpace=wrap;connectable=0;strokeColor=inherit;overflow=hidden;fillColor=none;top=0;left=0;bottom=0;right=0;pointerEvents=1;" parent="SgqDhj5_bFRxwwRKQSyi-361" vertex="1">
          <mxGeometry width="110" height="20" as="geometry">
            <mxRectangle width="110" height="20" as="alternateBounds" />
          </mxGeometry>
        </mxCell>
        <mxCell id="SgqDhj5_bFRxwwRKQSyi-363" value="local" style="shape=partialRectangle;html=1;whiteSpace=wrap;connectable=0;strokeColor=inherit;overflow=hidden;fillColor=none;top=0;left=0;bottom=0;right=0;pointerEvents=1;" parent="SgqDhj5_bFRxwwRKQSyi-361" vertex="1">
          <mxGeometry x="110" width="110" height="20" as="geometry">
            <mxRectangle width="110" height="20" as="alternateBounds" />
          </mxGeometry>
        </mxCell>
        <mxCell id="SgqDhj5_bFRxwwRKQSyi-344" value="" style="shape=table;startSize=0;container=1;collapsible=0;childLayout=tableLayout;" parent="1" vertex="1">
          <mxGeometry x="60" y="500" width="220" height="60" as="geometry" />
        </mxCell>
        <mxCell id="SgqDhj5_bFRxwwRKQSyi-345" value="" style="shape=tableRow;horizontal=0;startSize=0;swimlaneHead=0;swimlaneBody=0;strokeColor=inherit;top=0;left=0;bottom=0;right=0;collapsible=0;dropTarget=0;fillColor=none;points=[[0,0.5],[1,0.5]];portConstraint=eastwest;" parent="SgqDhj5_bFRxwwRKQSyi-344" vertex="1">
          <mxGeometry width="220" height="20" as="geometry" />
        </mxCell>
        <mxCell id="SgqDhj5_bFRxwwRKQSyi-346" value="dest" style="shape=partialRectangle;html=1;whiteSpace=wrap;connectable=0;strokeColor=inherit;overflow=hidden;fillColor=none;top=0;left=0;bottom=0;right=0;pointerEvents=1;" parent="SgqDhj5_bFRxwwRKQSyi-345" vertex="1">
          <mxGeometry width="110" height="20" as="geometry">
            <mxRectangle width="110" height="20" as="alternateBounds" />
          </mxGeometry>
        </mxCell>
        <mxCell id="SgqDhj5_bFRxwwRKQSyi-347" value="target" style="shape=partialRectangle;html=1;whiteSpace=wrap;connectable=0;strokeColor=inherit;overflow=hidden;fillColor=none;top=0;left=0;bottom=0;right=0;pointerEvents=1;" parent="SgqDhj5_bFRxwwRKQSyi-345" vertex="1">
          <mxGeometry x="110" width="110" height="20" as="geometry">
            <mxRectangle width="110" height="20" as="alternateBounds" />
          </mxGeometry>
        </mxCell>
        <mxCell id="SgqDhj5_bFRxwwRKQSyi-348" value="" style="shape=tableRow;horizontal=0;startSize=0;swimlaneHead=0;swimlaneBody=0;strokeColor=inherit;top=0;left=0;bottom=0;right=0;collapsible=0;dropTarget=0;fillColor=none;points=[[0,0.5],[1,0.5]];portConstraint=eastwest;" parent="SgqDhj5_bFRxwwRKQSyi-344" vertex="1">
          <mxGeometry y="20" width="220" height="20" as="geometry" />
        </mxCell>
        <mxCell id="SgqDhj5_bFRxwwRKQSyi-349" value="10.1.0.0/16" style="shape=partialRectangle;html=1;whiteSpace=wrap;connectable=0;strokeColor=inherit;overflow=hidden;fillColor=none;top=0;left=0;bottom=0;right=0;pointerEvents=1;" parent="SgqDhj5_bFRxwwRKQSyi-348" vertex="1">
          <mxGeometry width="110" height="20" as="geometry">
            <mxRectangle width="110" height="20" as="alternateBounds" />
          </mxGeometry>
        </mxCell>
        <mxCell id="SgqDhj5_bFRxwwRKQSyi-350" value="local" style="shape=partialRectangle;html=1;whiteSpace=wrap;connectable=0;strokeColor=inherit;overflow=hidden;fillColor=none;top=0;left=0;bottom=0;right=0;pointerEvents=1;" parent="SgqDhj5_bFRxwwRKQSyi-348" vertex="1">
          <mxGeometry x="110" width="110" height="20" as="geometry">
            <mxRectangle width="110" height="20" as="alternateBounds" />
          </mxGeometry>
        </mxCell>
        <mxCell id="SgqDhj5_bFRxwwRKQSyi-351" value="" style="shape=tableRow;horizontal=0;startSize=0;swimlaneHead=0;swimlaneBody=0;strokeColor=inherit;top=0;left=0;bottom=0;right=0;collapsible=0;dropTarget=0;fillColor=none;points=[[0,0.5],[1,0.5]];portConstraint=eastwest;" parent="SgqDhj5_bFRxwwRKQSyi-344" vertex="1">
          <mxGeometry y="40" width="220" height="20" as="geometry" />
        </mxCell>
        <mxCell id="SgqDhj5_bFRxwwRKQSyi-352" value="0.0.0.0/0" style="shape=partialRectangle;html=1;whiteSpace=wrap;connectable=0;strokeColor=inherit;overflow=hidden;fillColor=none;top=0;left=0;bottom=0;right=0;pointerEvents=1;" parent="SgqDhj5_bFRxwwRKQSyi-351" vertex="1">
          <mxGeometry width="110" height="20" as="geometry">
            <mxRectangle width="110" height="20" as="alternateBounds" />
          </mxGeometry>
        </mxCell>
        <mxCell id="SgqDhj5_bFRxwwRKQSyi-353" value="TGW" style="shape=partialRectangle;html=1;whiteSpace=wrap;connectable=0;strokeColor=inherit;overflow=hidden;fillColor=none;top=0;left=0;bottom=0;right=0;pointerEvents=1;" parent="SgqDhj5_bFRxwwRKQSyi-351" vertex="1">
          <mxGeometry x="110" width="110" height="20" as="geometry">
            <mxRectangle width="110" height="20" as="alternateBounds" />
          </mxGeometry>
        </mxCell>
        <mxCell id="tv9xakcxgfGbvvAGmK-Q-1" value="" style="shape=table;startSize=0;container=1;collapsible=0;childLayout=tableLayout;" vertex="1" parent="1">
          <mxGeometry x="1261" y="382" width="220" height="78" as="geometry" />
        </mxCell>
        <mxCell id="tv9xakcxgfGbvvAGmK-Q-2" value="" style="shape=tableRow;horizontal=0;startSize=0;swimlaneHead=0;swimlaneBody=0;strokeColor=inherit;top=0;left=0;bottom=0;right=0;collapsible=0;dropTarget=0;fillColor=none;points=[[0,0.5],[1,0.5]];portConstraint=eastwest;" vertex="1" parent="tv9xakcxgfGbvvAGmK-Q-1">
          <mxGeometry width="220" height="20" as="geometry" />
        </mxCell>
        <mxCell id="tv9xakcxgfGbvvAGmK-Q-3" value="dest" style="shape=partialRectangle;html=1;whiteSpace=wrap;connectable=0;strokeColor=inherit;overflow=hidden;fillColor=none;top=0;left=0;bottom=0;right=0;pointerEvents=1;" vertex="1" parent="tv9xakcxgfGbvvAGmK-Q-2">
          <mxGeometry width="110" height="20" as="geometry">
            <mxRectangle width="110" height="20" as="alternateBounds" />
          </mxGeometry>
        </mxCell>
        <mxCell id="tv9xakcxgfGbvvAGmK-Q-4" value="target" style="shape=partialRectangle;html=1;whiteSpace=wrap;connectable=0;strokeColor=inherit;overflow=hidden;fillColor=none;top=0;left=0;bottom=0;right=0;pointerEvents=1;" vertex="1" parent="tv9xakcxgfGbvvAGmK-Q-2">
          <mxGeometry x="110" width="110" height="20" as="geometry">
            <mxRectangle width="110" height="20" as="alternateBounds" />
          </mxGeometry>
        </mxCell>
        <mxCell id="tv9xakcxgfGbvvAGmK-Q-5" value="" style="shape=tableRow;horizontal=0;startSize=0;swimlaneHead=0;swimlaneBody=0;strokeColor=inherit;top=0;left=0;bottom=0;right=0;collapsible=0;dropTarget=0;fillColor=none;points=[[0,0.5],[1,0.5]];portConstraint=eastwest;" vertex="1" parent="tv9xakcxgfGbvvAGmK-Q-1">
          <mxGeometry y="20" width="220" height="19" as="geometry" />
        </mxCell>
        <mxCell id="tv9xakcxgfGbvvAGmK-Q-6" value="10.3.0.0/16" style="shape=partialRectangle;html=1;whiteSpace=wrap;connectable=0;strokeColor=inherit;overflow=hidden;fillColor=none;top=0;left=0;bottom=0;right=0;pointerEvents=1;" vertex="1" parent="tv9xakcxgfGbvvAGmK-Q-5">
          <mxGeometry width="110" height="19" as="geometry">
            <mxRectangle width="110" height="19" as="alternateBounds" />
          </mxGeometry>
        </mxCell>
        <mxCell id="tv9xakcxgfGbvvAGmK-Q-7" value="local" style="shape=partialRectangle;html=1;whiteSpace=wrap;connectable=0;strokeColor=inherit;overflow=hidden;fillColor=none;top=0;left=0;bottom=0;right=0;pointerEvents=1;" vertex="1" parent="tv9xakcxgfGbvvAGmK-Q-5">
          <mxGeometry x="110" width="110" height="19" as="geometry">
            <mxRectangle width="110" height="19" as="alternateBounds" />
          </mxGeometry>
        </mxCell>
        <mxCell id="tv9xakcxgfGbvvAGmK-Q-8" value="" style="shape=tableRow;horizontal=0;startSize=0;swimlaneHead=0;swimlaneBody=0;strokeColor=inherit;top=0;left=0;bottom=0;right=0;collapsible=0;dropTarget=0;fillColor=none;points=[[0,0.5],[1,0.5]];portConstraint=eastwest;" vertex="1" parent="tv9xakcxgfGbvvAGmK-Q-1">
          <mxGeometry y="39" width="220" height="20" as="geometry" />
        </mxCell>
        <mxCell id="tv9xakcxgfGbvvAGmK-Q-9" value="10.0.0.0/8" style="shape=partialRectangle;html=1;whiteSpace=wrap;connectable=0;strokeColor=inherit;overflow=hidden;fillColor=none;top=0;left=0;bottom=0;right=0;pointerEvents=1;" vertex="1" parent="tv9xakcxgfGbvvAGmK-Q-8">
          <mxGeometry width="110" height="20" as="geometry">
            <mxRectangle width="110" height="20" as="alternateBounds" />
          </mxGeometry>
        </mxCell>
        <mxCell id="tv9xakcxgfGbvvAGmK-Q-10" value="TGW" style="shape=partialRectangle;html=1;whiteSpace=wrap;connectable=0;strokeColor=inherit;overflow=hidden;fillColor=none;top=0;left=0;bottom=0;right=0;pointerEvents=1;" vertex="1" parent="tv9xakcxgfGbvvAGmK-Q-8">
          <mxGeometry x="110" width="110" height="20" as="geometry">
            <mxRectangle width="110" height="20" as="alternateBounds" />
          </mxGeometry>
        </mxCell>
        <mxCell id="tv9xakcxgfGbvvAGmK-Q-11" value="" style="shape=tableRow;horizontal=0;startSize=0;swimlaneHead=0;swimlaneBody=0;strokeColor=inherit;top=0;left=0;bottom=0;right=0;collapsible=0;dropTarget=0;fillColor=none;points=[[0,0.5],[1,0.5]];portConstraint=eastwest;" vertex="1" parent="tv9xakcxgfGbvvAGmK-Q-1">
          <mxGeometry y="59" width="220" height="19" as="geometry" />
        </mxCell>
        <mxCell id="tv9xakcxgfGbvvAGmK-Q-12" value="0.0.0.0/0" style="shape=partialRectangle;html=1;whiteSpace=wrap;connectable=0;strokeColor=inherit;overflow=hidden;fillColor=none;top=0;left=0;bottom=0;right=0;pointerEvents=1;" vertex="1" parent="tv9xakcxgfGbvvAGmK-Q-11">
          <mxGeometry width="110" height="19" as="geometry">
            <mxRectangle width="110" height="19" as="alternateBounds" />
          </mxGeometry>
        </mxCell>
        <mxCell id="tv9xakcxgfGbvvAGmK-Q-13" value="IGW" style="shape=partialRectangle;html=1;whiteSpace=wrap;connectable=0;strokeColor=inherit;overflow=hidden;fillColor=none;top=0;left=0;bottom=0;right=0;pointerEvents=1;" vertex="1" parent="tv9xakcxgfGbvvAGmK-Q-11">
          <mxGeometry x="110" width="110" height="19" as="geometry">
            <mxRectangle width="110" height="19" as="alternateBounds" />
          </mxGeometry>
        </mxCell>
        <mxCell id="tv9xakcxgfGbvvAGmK-Q-319" value="" style="points=[[0,0],[0.25,0],[0.5,0],[0.75,0],[1,0],[1,0.25],[1,0.5],[1,0.75],[1,1],[0.75,1],[0.5,1],[0.25,1],[0,1],[0,0.75],[0,0.5],[0,0.25]];outlineConnect=0;gradientColor=none;html=1;whiteSpace=wrap;fontSize=12;fontStyle=0;container=1;pointerEvents=0;collapsible=0;recursiveResize=0;shape=mxgraph.aws4.group;grIcon=mxgraph.aws4.group_vpc2;strokeColor=#8C4FFF;fillColor=none;verticalAlign=top;align=left;spacingLeft=30;fontColor=#AAB7B8;dashed=0;" vertex="1" parent="1">
          <mxGeometry x="980" y="290" width="270" height="590" as="geometry" />
        </mxCell>
        <mxCell id="tv9xakcxgfGbvvAGmK-Q-323" value="EGRESS VPC" style="text;html=1;align=center;verticalAlign=middle;resizable=0;points=[];autosize=1;strokeColor=none;fillColor=none;" vertex="1" parent="tv9xakcxgfGbvvAGmK-Q-319">
          <mxGeometry x="30" width="100" height="30" as="geometry" />
        </mxCell>
        <mxCell id="tv9xakcxgfGbvvAGmK-Q-330" value="" style="sketch=0;outlineConnect=0;fontColor=#232F3E;gradientColor=none;fillColor=#8C4FFF;strokeColor=none;dashed=0;verticalLabelPosition=bottom;verticalAlign=top;align=center;html=1;fontSize=12;fontStyle=0;aspect=fixed;pointerEvents=1;shape=mxgraph.aws4.internet_gateway;" vertex="1" parent="tv9xakcxgfGbvvAGmK-Q-319">
          <mxGeometry x="115" y="-20" width="40" height="40" as="geometry" />
        </mxCell>
      </root>
    </mxGraphModel>
  </diagram>
</mxfile>
